<svg xmlns="http://www.w3.org/2000/svg" viewBox="0 0 64 64" fill="none">
  <defs>
    <linearGradient id="gradient" x1="0%" y1="0%" x2="100%" y2="100%">
      <stop offset="0%" style="stop-color:#667eea;stop-opacity:1" />
      <stop offset="100%" style="stop-color:#764ba2;stop-opacity:1" />
    </linearGradient>
  </defs>

  <!-- Background circle -->
  <circle cx="32" cy="32" r="30" fill="url(#gradient)" opacity="0.1"/>

  <!-- Image frame -->
  <rect x="8" y="12" width="32" height="28" rx="3" stroke="url(#gradient)" stroke-width="2.5" fill="white"/>

  <!-- Mountain landscape inside frame -->
  <path d="M12 34 L18 26 L24 30 L32 20 L40 32 L40 38 L12 38 Z" fill="url(#gradient)" opacity="0.6"/>
  <circle cx="28" cy="20" r="3" fill="url(#gradient)" opacity="0.6"/>

  <!-- AI Sparkle icon -->
  <g transform="translate(42, 38)">
    <path d="M8 0 C8 0 9.5 4 12 6 C14.5 8 18.5 9.5 18.5 9.5 C18.5 9.5 14.5 11 12 13 C9.5 15 8 19 8 19 C8 19 6.5 15 4 13 C1.5 11 0 9.5 0 9.5 C0 9.5 4 8 6.5 6 C9 4 8 0 8 0 Z"
          fill="url(#gradient)"/>
  </g>

  <!-- Small sparkles -->
  <circle cx="48" cy="18" r="2" fill="url(#gradient)" opacity="0.8"/>
  <circle cx="52" cy="24" r="1.5" fill="url(#gradient)" opacity="0.6"/>
  <circle cx="44" cy="26" r="1" fill="url(#gradient)" opacity="0.7"/>
</svg>
