<!-- Alternative Design 2: Magic Wand Creation -->
<svg xmlns="http://www.w3.org/2000/svg" viewBox="0 0 64 64" fill="none">
  <defs>
    <linearGradient id="grad2" x1="0%" y1="0%" x2="100%" y2="100%">
      <stop offset="0%" style="stop-color:#4facfe;stop-opacity:1" />
      <stop offset="100%" style="stop-color:#00f2fe;stop-opacity:1" />
    </linearGradient>
  </defs>

  <!-- Magic wand -->
  <line x1="8" y1="56" x2="48" y2="16" stroke="url(#grad2)" stroke-width="3" stroke-linecap="round"/>
  <rect x="4" y="52" width="12" height="8" rx="2" fill="url(#grad2)"/>

  <!-- Wand tip star -->
  <path d="M48 16 L52 8 L56 16 L64 20 L56 24 L52 32 L48 24 L40 20 Z"
        fill="url(#grad2)" transform="scale(0.7) translate(20, 5)"/>

  <!-- Sparkles trail -->
  <g fill="url(#grad2)">
    <path d="M28 8 C28 8 29 10 30 11 C31 12 33 13 33 13 C33 13 31 14 30 15 C29 16 28 18 28 18 C28 18 27 16 26 15 C25 14 23 13 23 13 C23 13 25 12 26 11 C27 10 28 8 28 8 Z"/>
    <path d="M20 24 C20 24 21 26 22 27 C23 28 25 29 25 29 C25 29 23 30 22 31 C21 32 20 34 20 34 C20 34 19 32 18 31 C17 30 15 29 15 29 C15 29 17 28 18 27 C19 26 20 24 20 24 Z"/>
    <path d="M36 4 C36 4 36.5 5 37 5.5 C37.5 6 38.5 6.5 38.5 6.5 C38.5 6.5 37.5 7 37 7.5 C36.5 8 36 9 36 9 C36 9 35.5 8 35 7.5 C34.5 7 33.5 6.5 33.5 6.5 C33.5 6.5 34.5 6 35 5.5 C35.5 5 36 4 36 4 Z"/>
  </g>

  <!-- Emerging image -->
  <rect x="20" y="36" width="28" height="20" rx="2" stroke="url(#grad2)" stroke-width="2" fill="white" stroke-dasharray="2 2"/>
  <circle cx="34" cy="46" r="4" fill="url(#grad2)" opacity="0.5"/>
</svg>
